<svg width="1024" height="1024" viewBox="0 0 1024 1024" fill="none" xmlns="http://www.w3.org/2000/svg">
<g filter="url(#filter0_i_2001_2)">
<rect width="1024" height="1024" rx="512" fill="url(#paint0_linear_2001_2)"/>
<path d="M267 666.5C243 666.5 221.833 658.667 203.5 643C184.5 626.333 175 606.167 175 582.5C175 558.5 183.333 536.833 200 517.5C216.667 499.5 237 488 261 483C259.667 478 259 472.333 259 466C259 450 262.833 433.833 270.5 417.5C278.5 400.167 288.833 387.333 301.5 379C326.167 362.667 354.5 354.5 386.5 354.5C409.5 354.5 434.667 358.667 462 367C466.333 368 474.5 370.667 486.5 375C498.833 379 515 384.667 535 392C553.333 379.333 570.167 373 585.5 373C600.5 373 608 378.667 608 390C608 401.333 598 407 578 407C567.667 407 554.5 404.167 538.5 398.5C518.833 419.167 500 452.167 482 497.5H508.5L509.5 498.5V501.5L508.5 502H480.5C460.5 549.333 436.333 585.333 408 610V609.5C397.667 618.833 387.333 627 377 634C366.667 640.667 356.333 646.167 346 650.5C326 658.833 301.667 664 273 666C272 666 271 666 270 666C269 666.333 268 666.5 267 666.5ZM273.5 659C301.167 659 328.5 648 355.5 626C377.5 608 397 585 414 557C417.667 550.667 422.167 543 427.5 534C433.167 525 439.667 514.333 447 502H402.5L402 501.5V498.5L402.5 497.5H449.5C481.833 445.5 508.5 411.667 529.5 396C473.167 378 426.5 369 389.5 369C352.167 369 324.167 377.833 305.5 395.5C284.5 415.833 274 440.833 274 470.5C274 472.167 274 474 274 476C274 477.667 274.167 479.333 274.5 481C276.167 481 277.5 481 278.5 481C279.833 480.667 281.167 480.5 282.5 480.5C314.167 480.5 333.5 494 340.5 521C353.5 515.333 365.333 506.5 376 494.5C388.333 481.167 394.5 468.167 394.5 455.5C394.5 453.5 395.167 452.5 396.5 452.5C397.833 452.5 398.5 453.167 398.5 454.5C398.5 454.833 398.333 455.333 398 456C398 456.667 398 457.333 398 458C390.667 491 371.833 513.5 341.5 525.5C342.5 529.5 343 533.833 343 538.5C343 557.167 335.667 573.5 321 587.5C306.667 600.833 290 607.5 271 607.5C269 607.5 268 606.667 268 605C268 602.667 269.667 601.333 273 601C274.667 600.667 276.833 600.333 279.5 600C282.5 599.667 285.667 599 289 598C314.333 592 329.833 576.5 335.5 551.5C336.167 548.833 336.667 546.167 337 543.5C337.333 540.5 337.5 537.833 337.5 535.5C337.5 534.167 337.333 532.833 337 531.5C337 529.833 337 528.333 337 527C330 529.333 322.833 530.5 315.5 530.5C302.167 530.5 291 526.667 282 519C272.667 511.333 266.167 501.333 262.5 489C241.5 497 224.5 510.167 211.5 528.5C198.167 547.167 191.5 567.667 191.5 590C191.5 613 199.667 630.5 216 642.5C230.667 653.5 249.833 659 273.5 659ZM578.5 403C595.167 403 603.5 398.667 603.5 390C603.5 380.667 597 376 584 376C569 376 555.167 382.167 542.5 394.5C558.5 400.167 570.5 403 578.5 403ZM317 526C323.667 526 330 524.833 336 522.5C333 510.833 326.667 501.667 317 495C307.333 488.333 296.5 485 284.5 485C283.167 485 281.667 485 280 485C278.667 485 277.167 485.167 275.5 485.5C276.5 490.833 278.167 495.833 280.5 500.5C283.167 505.167 286.167 509.5 289.5 513.5C297.5 521.833 306.667 526 317 526ZM549.34 655C515.673 655 498.84 639 498.84 607C498.84 598 500.34 588.333 503.34 578V578.5C505.007 572.5 508.173 566.667 512.84 561C518.507 554 523.673 550.5 528.34 550.5C528.34 550.5 528.84 550.5 529.84 550.5C530.84 550.5 532.507 550.833 534.84 551.5L540.34 543C545.007 536 549.173 529 552.84 522C556.84 514.667 561.007 507.5 565.34 500.5C577.673 479.167 587.007 467.667 593.34 466C595.34 465.333 596.84 465 597.84 465C602.84 465 605.34 466.833 605.34 470.5C605.34 474.833 601.673 477.5 594.34 478.5C587.673 479.5 583.507 480.333 581.84 481C579.173 483 577.84 487.333 577.84 494C577.84 501 582.34 512.833 591.34 529.5C600.34 545.833 604.84 560.333 604.84 573C604.84 576.333 604.507 579.5 603.84 582.5C603.507 585.5 603.007 588.667 602.34 592C593.34 629.667 569.507 648.5 530.84 648.5C538.507 650.167 545.507 651 551.84 651C563.507 651 574.84 649 585.84 645C596.84 640.667 607.007 634.833 616.34 627.5C626.007 619.833 634.84 610.667 642.84 600C651.173 589 658.34 577.333 664.34 565C665.34 563 666.34 562 667.34 562C669.34 562 669.507 563.667 667.84 567C662.507 577 656.84 586.5 650.84 595.5C645.173 604.167 639.007 612 632.34 619C624.34 627 613.507 635 599.84 643C586.173 651 569.34 655 549.34 655ZM527.34 644.5C544.34 644.5 558.34 631.667 569.34 606C578.34 586 582.84 565.833 582.84 545.5C582.84 542.833 582.34 539.333 581.34 535C580.673 530.333 579.507 524.833 577.84 518.5C576.507 512.5 575.507 507.333 574.84 503C574.173 498.333 574.007 494.333 574.34 491C568.007 503.667 561.673 515.167 555.34 525.5C549.007 535.833 543.007 545.167 537.34 553.5C539.007 556.167 539.84 558.833 539.84 561.5C539.84 566.167 538.007 571.333 534.34 577C532.007 580.333 528.007 583.5 522.34 586.5C516.673 589.5 512.673 592.333 510.34 595C506.673 600.333 504.84 607.333 504.84 616C504.84 635 512.34 644.5 527.34 644.5ZM603.152 661L602.152 660C611.819 643.333 621.152 626.167 630.152 608.5C639.152 590.833 648.319 572.667 657.652 554C661.319 546.667 665.652 537.5 670.652 526.5C675.986 515.5 681.986 502.667 688.652 488H689.652C691.986 489.667 694.652 490.5 697.652 490.5C704.652 490.5 712.319 487.333 720.652 481L721.652 480L721.152 481H720.652C718.319 485.667 713.986 493.833 707.652 505.5C701.652 516.833 693.819 531.833 684.152 550.5C711.486 507.167 734.319 485.5 752.652 485.5C764.986 485.5 771.152 491.333 771.152 503C771.152 512.667 766.986 526.833 758.652 545.5C765.652 535.833 771.486 528 776.152 522C780.819 515.667 784.319 511.333 786.652 509C800.652 494 813.152 486.5 824.152 486.5C838.486 486.5 845.652 493.5 845.652 507.5C845.652 517.833 842.986 528.333 837.652 539C832.652 549.333 826.652 559.833 819.652 570.5C812.652 580.833 806.319 591.167 800.652 601.5C797.986 606.833 795.486 612.5 793.152 618.5C791.152 624.167 790.152 629.333 790.152 634C790.152 638.333 791.486 642 794.152 645C796.819 647.667 801.319 649 807.652 649C812.319 649 816.819 648.167 821.152 646.5C825.486 644.5 829.319 642.333 832.652 640C841.652 633 849.319 624.833 855.652 615.5C861.986 606.167 867.486 596.833 872.152 587.5C876.819 578.167 880.986 570.333 884.652 564C885.652 562.333 886.652 561.833 887.652 562.5C888.652 562.833 888.819 563.833 888.152 565.5C881.486 579.5 874.152 593.833 866.152 608.5C858.152 623.167 847.986 634.833 835.652 643.5C831.319 646.5 826.486 649 821.152 651C816.152 653 810.819 654 805.152 654C793.486 654 784.986 651.5 779.652 646.5C774.652 641.167 772.152 634.333 772.152 626C772.152 620 773.486 612.667 776.152 604C778.152 598 780.652 591.667 783.652 585C786.986 578 791.152 570.5 796.152 562.5C813.819 533.167 822.652 514.167 822.652 505.5C822.652 499.833 820.152 497 815.152 497C801.152 497 780.819 518.833 754.152 562.5C745.819 575.833 737.819 589.833 730.152 604.5C722.486 618.833 714.819 633.833 707.152 649.5H706.152C703.819 648.833 701.652 648.333 699.652 648C697.652 647.667 695.819 647.5 694.152 647.5C684.152 647.5 678.152 651 676.152 658L674.652 657C687.319 635 697.319 617.5 704.652 604.5C711.986 591.5 716.819 583 719.152 579C740.486 538.333 751.152 512.333 751.152 501C751.152 496 749.319 493.5 745.652 493.5C731.986 493.5 711.486 515.833 684.152 560.5C666.152 589.5 649.986 619.333 635.652 650L634.652 650.5C630.319 648.833 626.486 648 623.152 648C617.486 648 612.819 650.167 609.152 654.5C605.819 658.833 603.819 661 603.152 661Z" fill="white"/>
</g>
<defs>
<filter id="filter0_i_2001_2" x="0" y="0" width="1024" height="1024" filterUnits="userSpaceOnUse" color-interpolation-filters="sRGB">
<feFlood flood-opacity="0" result="BackgroundImageFix"/>
<feBlend mode="normal" in="SourceGraphic" in2="BackgroundImageFix" result="shape"/>
<feColorMatrix in="SourceAlpha" type="matrix" values="0 0 0 0 0 0 0 0 0 0 0 0 0 0 0 0 0 0 127 0" result="hardAlpha"/>
<feOffset/>
<feGaussianBlur stdDeviation="35"/>
<feComposite in2="hardAlpha" operator="arithmetic" k2="-1" k3="1"/>
<feColorMatrix type="matrix" values="0 0 0 0 1 0 0 0 0 1 0 0 0 0 1 0 0 0 0.85 0"/>
<feBlend mode="normal" in2="shape" result="effect1_innerShadow_2001_2"/>
</filter>
<linearGradient id="paint0_linear_2001_2" x1="173.5" y1="138" x2="1024" y2="1024" gradientUnits="userSpaceOnUse">
<stop stop-color="#D68743"/>
<stop offset="0.375" stop-color="#FF4543"/>
<stop offset="0.697115" stop-color="#96169C"/>
<stop offset="1" stop-color="#3D0A90"/>
</linearGradient>
</defs>
</svg>
